<?xml version="1.0" encoding="utf-8" standalone="no"?>
<!DOCTYPE svg PUBLIC "-//W3C//DTD SVG 1.1//EN"
  "http://www.w3.org/Graphics/SVG/1.1/DTD/svg11.dtd">
<!-- Created with matplotlib (https://matplotlib.org/) -->
<svg height="248.518125pt" version="1.1" viewBox="0 0 388.0125 248.518125" width="388.0125pt" xmlns="http://www.w3.org/2000/svg" xmlns:xlink="http://www.w3.org/1999/xlink">
 <defs>
  <style type="text/css">
*{stroke-linecap:butt;stroke-linejoin:round;}
  </style>
 </defs>
 <g id="figure_1">
  <g id="patch_1">
   <path d="M 0 248.518125 
L 388.0125 248.518125 
L 388.0125 0 
L 0 0 
z
" style="fill:#ffffff;"/>
  </g>
  <g id="axes_1">
   <g id="patch_2">
    <path d="M 46.0125 224.64 
L 380.8125 224.64 
L 380.8125 7.2 
L 46.0125 7.2 
z
" style="fill:#e5e5e5;"/>
   </g>
   <g id="matplotlib.axis_1">
    <g id="xtick_1">
     <g id="line2d_1">
      <path clip-path="url(#p03771296ca)" d="M 61.230682 224.64 
L 61.230682 7.2 
" style="fill:none;stroke:#ffffff;stroke-linecap:square;stroke-width:0.8;"/>
     </g>
     <g id="line2d_2">
      <defs>
       <path d="M 0 0 
L 0 3.5 
" id="mf40a2b3892" style="stroke:#555555;stroke-width:0.8;"/>
      </defs>
      <g>
       <use style="fill:#555555;stroke:#555555;stroke-width:0.8;" x="61.230682" xlink:href="#mf40a2b3892" y="224.64"/>
      </g>
     </g>
     <g id="text_1">
      <!-- 0 -->
      <defs>
       <path d="M 31.78125 66.40625 
Q 24.171875 66.40625 20.328125 58.90625 
Q 16.5 51.421875 16.5 36.375 
Q 16.5 21.390625 20.328125 13.890625 
Q 24.171875 6.390625 31.78125 6.390625 
Q 39.453125 6.390625 43.28125 13.890625 
Q 47.125 21.390625 47.125 36.375 
Q 47.125 51.421875 43.28125 58.90625 
Q 39.453125 66.40625 31.78125 66.40625 
z
M 31.78125 74.21875 
Q 44.046875 74.21875 50.515625 64.515625 
Q 56.984375 54.828125 56.984375 36.375 
Q 56.984375 17.96875 50.515625 8.265625 
Q 44.046875 -1.421875 31.78125 -1.421875 
Q 19.53125 -1.421875 13.0625 8.265625 
Q 6.59375 17.96875 6.59375 36.375 
Q 6.59375 54.828125 13.0625 64.515625 
Q 19.53125 74.21875 31.78125 74.21875 
z
" id="DejaVuSans-48"/>
      </defs>
      <g style="fill:#555555;" transform="translate(58.049432 239.238437)scale(0.1 -0.1)">
       <use xlink:href="#DejaVuSans-48"/>
      </g>
     </g>
    </g>
    <g id="xtick_2">
     <g id="line2d_3">
      <path clip-path="url(#p03771296ca)" d="M 122.225399 224.64 
L 122.225399 7.2 
" style="fill:none;stroke:#ffffff;stroke-linecap:square;stroke-width:0.8;"/>
     </g>
     <g id="line2d_4">
      <g>
       <use style="fill:#555555;stroke:#555555;stroke-width:0.8;" x="122.225399" xlink:href="#mf40a2b3892" y="224.64"/>
      </g>
     </g>
     <g id="text_2">
      <!-- 100 -->
      <defs>
       <path d="M 12.40625 8.296875 
L 28.515625 8.296875 
L 28.515625 63.921875 
L 10.984375 60.40625 
L 10.984375 69.390625 
L 28.421875 72.90625 
L 38.28125 72.90625 
L 38.28125 8.296875 
L 54.390625 8.296875 
L 54.390625 0 
L 12.40625 0 
z
" id="DejaVuSans-49"/>
      </defs>
      <g style="fill:#555555;" transform="translate(112.681649 239.238437)scale(0.1 -0.1)">
       <use xlink:href="#DejaVuSans-49"/>
       <use x="63.623047" xlink:href="#DejaVuSans-48"/>
       <use x="127.246094" xlink:href="#DejaVuSans-48"/>
      </g>
     </g>
    </g>
    <g id="xtick_3">
     <g id="line2d_5">
      <path clip-path="url(#p03771296ca)" d="M 183.220115 224.64 
L 183.220115 7.2 
" style="fill:none;stroke:#ffffff;stroke-linecap:square;stroke-width:0.8;"/>
     </g>
     <g id="line2d_6">
      <g>
       <use style="fill:#555555;stroke:#555555;stroke-width:0.8;" x="183.220115" xlink:href="#mf40a2b3892" y="224.64"/>
      </g>
     </g>
     <g id="text_3">
      <!-- 200 -->
      <defs>
       <path d="M 19.1875 8.296875 
L 53.609375 8.296875 
L 53.609375 0 
L 7.328125 0 
L 7.328125 8.296875 
Q 12.9375 14.109375 22.625 23.890625 
Q 32.328125 33.6875 34.8125 36.53125 
Q 39.546875 41.84375 41.421875 45.53125 
Q 43.3125 49.21875 43.3125 52.78125 
Q 43.3125 58.59375 39.234375 62.25 
Q 35.15625 65.921875 28.609375 65.921875 
Q 23.96875 65.921875 18.8125 64.3125 
Q 13.671875 62.703125 7.8125 59.421875 
L 7.8125 69.390625 
Q 13.765625 71.78125 18.9375 73 
Q 24.125 74.21875 28.421875 74.21875 
Q 39.75 74.21875 46.484375 68.546875 
Q 53.21875 62.890625 53.21875 53.421875 
Q 53.21875 48.921875 51.53125 44.890625 
Q 49.859375 40.875 45.40625 35.40625 
Q 44.1875 33.984375 37.640625 27.21875 
Q 31.109375 20.453125 19.1875 8.296875 
z
" id="DejaVuSans-50"/>
      </defs>
      <g style="fill:#555555;" transform="translate(173.676365 239.238437)scale(0.1 -0.1)">
       <use xlink:href="#DejaVuSans-50"/>
       <use x="63.623047" xlink:href="#DejaVuSans-48"/>
       <use x="127.246094" xlink:href="#DejaVuSans-48"/>
      </g>
     </g>
    </g>
    <g id="xtick_4">
     <g id="line2d_7">
      <path clip-path="url(#p03771296ca)" d="M 244.214832 224.64 
L 244.214832 7.2 
" style="fill:none;stroke:#ffffff;stroke-linecap:square;stroke-width:0.8;"/>
     </g>
     <g id="line2d_8">
      <g>
       <use style="fill:#555555;stroke:#555555;stroke-width:0.8;" x="244.214832" xlink:href="#mf40a2b3892" y="224.64"/>
      </g>
     </g>
     <g id="text_4">
      <!-- 300 -->
      <defs>
       <path d="M 40.578125 39.3125 
Q 47.65625 37.796875 51.625 33 
Q 55.609375 28.21875 55.609375 21.1875 
Q 55.609375 10.40625 48.1875 4.484375 
Q 40.765625 -1.421875 27.09375 -1.421875 
Q 22.515625 -1.421875 17.65625 -0.515625 
Q 12.796875 0.390625 7.625 2.203125 
L 7.625 11.71875 
Q 11.71875 9.328125 16.59375 8.109375 
Q 21.484375 6.890625 26.8125 6.890625 
Q 36.078125 6.890625 40.9375 10.546875 
Q 45.796875 14.203125 45.796875 21.1875 
Q 45.796875 27.640625 41.28125 31.265625 
Q 36.765625 34.90625 28.71875 34.90625 
L 20.21875 34.90625 
L 20.21875 43.015625 
L 29.109375 43.015625 
Q 36.375 43.015625 40.234375 45.921875 
Q 44.09375 48.828125 44.09375 54.296875 
Q 44.09375 59.90625 40.109375 62.90625 
Q 36.140625 65.921875 28.71875 65.921875 
Q 24.65625 65.921875 20.015625 65.03125 
Q 15.375 64.15625 9.8125 62.3125 
L 9.8125 71.09375 
Q 15.4375 72.65625 20.34375 73.4375 
Q 25.25 74.21875 29.59375 74.21875 
Q 40.828125 74.21875 47.359375 69.109375 
Q 53.90625 64.015625 53.90625 55.328125 
Q 53.90625 49.265625 50.4375 45.09375 
Q 46.96875 40.921875 40.578125 39.3125 
z
" id="DejaVuSans-51"/>
      </defs>
      <g style="fill:#555555;" transform="translate(234.671082 239.238437)scale(0.1 -0.1)">
       <use xlink:href="#DejaVuSans-51"/>
       <use x="63.623047" xlink:href="#DejaVuSans-48"/>
       <use x="127.246094" xlink:href="#DejaVuSans-48"/>
      </g>
     </g>
    </g>
    <g id="xtick_5">
     <g id="line2d_9">
      <path clip-path="url(#p03771296ca)" d="M 305.209549 224.64 
L 305.209549 7.2 
" style="fill:none;stroke:#ffffff;stroke-linecap:square;stroke-width:0.8;"/>
     </g>
     <g id="line2d_10">
      <g>
       <use style="fill:#555555;stroke:#555555;stroke-width:0.8;" x="305.209549" xlink:href="#mf40a2b3892" y="224.64"/>
      </g>
     </g>
     <g id="text_5">
      <!-- 400 -->
      <defs>
       <path d="M 37.796875 64.3125 
L 12.890625 25.390625 
L 37.796875 25.390625 
z
M 35.203125 72.90625 
L 47.609375 72.90625 
L 47.609375 25.390625 
L 58.015625 25.390625 
L 58.015625 17.1875 
L 47.609375 17.1875 
L 47.609375 0 
L 37.796875 0 
L 37.796875 17.1875 
L 4.890625 17.1875 
L 4.890625 26.703125 
z
" id="DejaVuSans-52"/>
      </defs>
      <g style="fill:#555555;" transform="translate(295.665799 239.238437)scale(0.1 -0.1)">
       <use xlink:href="#DejaVuSans-52"/>
       <use x="63.623047" xlink:href="#DejaVuSans-48"/>
       <use x="127.246094" xlink:href="#DejaVuSans-48"/>
      </g>
     </g>
    </g>
    <g id="xtick_6">
     <g id="line2d_11">
      <path clip-path="url(#p03771296ca)" d="M 366.204265 224.64 
L 366.204265 7.2 
" style="fill:none;stroke:#ffffff;stroke-linecap:square;stroke-width:0.8;"/>
     </g>
     <g id="line2d_12">
      <g>
       <use style="fill:#555555;stroke:#555555;stroke-width:0.8;" x="366.204265" xlink:href="#mf40a2b3892" y="224.64"/>
      </g>
     </g>
     <g id="text_6">
      <!-- 500 -->
      <defs>
       <path d="M 10.796875 72.90625 
L 49.515625 72.90625 
L 49.515625 64.59375 
L 19.828125 64.59375 
L 19.828125 46.734375 
Q 21.96875 47.46875 24.109375 47.828125 
Q 26.265625 48.1875 28.421875 48.1875 
Q 40.625 48.1875 47.75 41.5 
Q 54.890625 34.8125 54.890625 23.390625 
Q 54.890625 11.625 47.5625 5.09375 
Q 40.234375 -1.421875 26.90625 -1.421875 
Q 22.3125 -1.421875 17.546875 -0.640625 
Q 12.796875 0.140625 7.71875 1.703125 
L 7.71875 11.625 
Q 12.109375 9.234375 16.796875 8.0625 
Q 21.484375 6.890625 26.703125 6.890625 
Q 35.15625 6.890625 40.078125 11.328125 
Q 45.015625 15.765625 45.015625 23.390625 
Q 45.015625 31 40.078125 35.4375 
Q 35.15625 39.890625 26.703125 39.890625 
Q 22.75 39.890625 18.8125 39.015625 
Q 14.890625 38.140625 10.796875 36.28125 
z
" id="DejaVuSans-53"/>
      </defs>
      <g style="fill:#555555;" transform="translate(356.660515 239.238437)scale(0.1 -0.1)">
       <use xlink:href="#DejaVuSans-53"/>
       <use x="63.623047" xlink:href="#DejaVuSans-48"/>
       <use x="127.246094" xlink:href="#DejaVuSans-48"/>
      </g>
     </g>
    </g>
   </g>
   <g id="matplotlib.axis_2">
    <g id="ytick_1">
     <g id="line2d_13">
      <path clip-path="url(#p03771296ca)" d="M 46.0125 202.212636 
L 380.8125 202.212636 
" style="fill:none;stroke:#ffffff;stroke-linecap:square;stroke-width:0.8;"/>
     </g>
     <g id="line2d_14">
      <defs>
       <path d="M 0 0 
L -3.5 0 
" id="m56dfc9413e" style="stroke:#555555;stroke-width:0.8;"/>
      </defs>
      <g>
       <use style="fill:#555555;stroke:#555555;stroke-width:0.8;" x="46.0125" xlink:href="#m56dfc9413e" y="202.212636"/>
      </g>
     </g>
     <g id="text_7">
      <!-- 4000 -->
      <g style="fill:#555555;" transform="translate(13.5625 206.011855)scale(0.1 -0.1)">
       <use xlink:href="#DejaVuSans-52"/>
       <use x="63.623047" xlink:href="#DejaVuSans-48"/>
       <use x="127.246094" xlink:href="#DejaVuSans-48"/>
       <use x="190.869141" xlink:href="#DejaVuSans-48"/>
      </g>
     </g>
    </g>
    <g id="ytick_2">
     <g id="line2d_15">
      <path clip-path="url(#p03771296ca)" d="M 46.0125 160.76221 
L 380.8125 160.76221 
" style="fill:none;stroke:#ffffff;stroke-linecap:square;stroke-width:0.8;"/>
     </g>
     <g id="line2d_16">
      <g>
       <use style="fill:#555555;stroke:#555555;stroke-width:0.8;" x="46.0125" xlink:href="#m56dfc9413e" y="160.76221"/>
      </g>
     </g>
     <g id="text_8">
      <!-- 6000 -->
      <defs>
       <path d="M 33.015625 40.375 
Q 26.375 40.375 22.484375 35.828125 
Q 18.609375 31.296875 18.609375 23.390625 
Q 18.609375 15.53125 22.484375 10.953125 
Q 26.375 6.390625 33.015625 6.390625 
Q 39.65625 6.390625 43.53125 10.953125 
Q 47.40625 15.53125 47.40625 23.390625 
Q 47.40625 31.296875 43.53125 35.828125 
Q 39.65625 40.375 33.015625 40.375 
z
M 52.59375 71.296875 
L 52.59375 62.3125 
Q 48.875 64.0625 45.09375 64.984375 
Q 41.3125 65.921875 37.59375 65.921875 
Q 27.828125 65.921875 22.671875 59.328125 
Q 17.53125 52.734375 16.796875 39.40625 
Q 19.671875 43.65625 24.015625 45.921875 
Q 28.375 48.1875 33.59375 48.1875 
Q 44.578125 48.1875 50.953125 41.515625 
Q 57.328125 34.859375 57.328125 23.390625 
Q 57.328125 12.15625 50.6875 5.359375 
Q 44.046875 -1.421875 33.015625 -1.421875 
Q 20.359375 -1.421875 13.671875 8.265625 
Q 6.984375 17.96875 6.984375 36.375 
Q 6.984375 53.65625 15.1875 63.9375 
Q 23.390625 74.21875 37.203125 74.21875 
Q 40.921875 74.21875 44.703125 73.484375 
Q 48.484375 72.75 52.59375 71.296875 
z
" id="DejaVuSans-54"/>
      </defs>
      <g style="fill:#555555;" transform="translate(13.5625 164.561429)scale(0.1 -0.1)">
       <use xlink:href="#DejaVuSans-54"/>
       <use x="63.623047" xlink:href="#DejaVuSans-48"/>
       <use x="127.246094" xlink:href="#DejaVuSans-48"/>
       <use x="190.869141" xlink:href="#DejaVuSans-48"/>
      </g>
     </g>
    </g>
    <g id="ytick_3">
     <g id="line2d_17">
      <path clip-path="url(#p03771296ca)" d="M 46.0125 119.311785 
L 380.8125 119.311785 
" style="fill:none;stroke:#ffffff;stroke-linecap:square;stroke-width:0.8;"/>
     </g>
     <g id="line2d_18">
      <g>
       <use style="fill:#555555;stroke:#555555;stroke-width:0.8;" x="46.0125" xlink:href="#m56dfc9413e" y="119.311785"/>
      </g>
     </g>
     <g id="text_9">
      <!-- 8000 -->
      <defs>
       <path d="M 31.78125 34.625 
Q 24.75 34.625 20.71875 30.859375 
Q 16.703125 27.09375 16.703125 20.515625 
Q 16.703125 13.921875 20.71875 10.15625 
Q 24.75 6.390625 31.78125 6.390625 
Q 38.8125 6.390625 42.859375 10.171875 
Q 46.921875 13.96875 46.921875 20.515625 
Q 46.921875 27.09375 42.890625 30.859375 
Q 38.875 34.625 31.78125 34.625 
z
M 21.921875 38.8125 
Q 15.578125 40.375 12.03125 44.71875 
Q 8.5 49.078125 8.5 55.328125 
Q 8.5 64.0625 14.71875 69.140625 
Q 20.953125 74.21875 31.78125 74.21875 
Q 42.671875 74.21875 48.875 69.140625 
Q 55.078125 64.0625 55.078125 55.328125 
Q 55.078125 49.078125 51.53125 44.71875 
Q 48 40.375 41.703125 38.8125 
Q 48.828125 37.15625 52.796875 32.3125 
Q 56.78125 27.484375 56.78125 20.515625 
Q 56.78125 9.90625 50.3125 4.234375 
Q 43.84375 -1.421875 31.78125 -1.421875 
Q 19.734375 -1.421875 13.25 4.234375 
Q 6.78125 9.90625 6.78125 20.515625 
Q 6.78125 27.484375 10.78125 32.3125 
Q 14.796875 37.15625 21.921875 38.8125 
z
M 18.3125 54.390625 
Q 18.3125 48.734375 21.84375 45.5625 
Q 25.390625 42.390625 31.78125 42.390625 
Q 38.140625 42.390625 41.71875 45.5625 
Q 45.3125 48.734375 45.3125 54.390625 
Q 45.3125 60.0625 41.71875 63.234375 
Q 38.140625 66.40625 31.78125 66.40625 
Q 25.390625 66.40625 21.84375 63.234375 
Q 18.3125 60.0625 18.3125 54.390625 
z
" id="DejaVuSans-56"/>
      </defs>
      <g style="fill:#555555;" transform="translate(13.5625 123.111003)scale(0.1 -0.1)">
       <use xlink:href="#DejaVuSans-56"/>
       <use x="63.623047" xlink:href="#DejaVuSans-48"/>
       <use x="127.246094" xlink:href="#DejaVuSans-48"/>
       <use x="190.869141" xlink:href="#DejaVuSans-48"/>
      </g>
     </g>
    </g>
    <g id="ytick_4">
     <g id="line2d_19">
      <path clip-path="url(#p03771296ca)" d="M 46.0125 77.861359 
L 380.8125 77.861359 
" style="fill:none;stroke:#ffffff;stroke-linecap:square;stroke-width:0.8;"/>
     </g>
     <g id="line2d_20">
      <g>
       <use style="fill:#555555;stroke:#555555;stroke-width:0.8;" x="46.0125" xlink:href="#m56dfc9413e" y="77.861359"/>
      </g>
     </g>
     <g id="text_10">
      <!-- 10000 -->
      <g style="fill:#555555;" transform="translate(7.2 81.660578)scale(0.1 -0.1)">
       <use xlink:href="#DejaVuSans-49"/>
       <use x="63.623047" xlink:href="#DejaVuSans-48"/>
       <use x="127.246094" xlink:href="#DejaVuSans-48"/>
       <use x="190.869141" xlink:href="#DejaVuSans-48"/>
       <use x="254.492188" xlink:href="#DejaVuSans-48"/>
      </g>
     </g>
    </g>
    <g id="ytick_5">
     <g id="line2d_21">
      <path clip-path="url(#p03771296ca)" d="M 46.0125 36.410934 
L 380.8125 36.410934 
" style="fill:none;stroke:#ffffff;stroke-linecap:square;stroke-width:0.8;"/>
     </g>
     <g id="line2d_22">
      <g>
       <use style="fill:#555555;stroke:#555555;stroke-width:0.8;" x="46.0125" xlink:href="#m56dfc9413e" y="36.410934"/>
      </g>
     </g>
     <g id="text_11">
      <!-- 12000 -->
      <g style="fill:#555555;" transform="translate(7.2 40.210152)scale(0.1 -0.1)">
       <use xlink:href="#DejaVuSans-49"/>
       <use x="63.623047" xlink:href="#DejaVuSans-50"/>
       <use x="127.246094" xlink:href="#DejaVuSans-48"/>
       <use x="190.869141" xlink:href="#DejaVuSans-48"/>
       <use x="254.492188" xlink:href="#DejaVuSans-48"/>
      </g>
     </g>
    </g>
   </g>
   <g id="line2d_23">
    <path clip-path="url(#p03771296ca)" d="M 61.230682 205.883693 
L 61.840629 205.184217 
L 62.450576 205.695715 
L 63.060523 200.725187 
L 63.67047 201.544248 
L 64.280418 201.778028 
L 64.890365 201.861965 
L 65.500312 209.54418 
L 66.110259 209.323456 
L 66.720206 209.729463 
L 67.330153 211.912864 
L 67.940101 208.793305 
L 68.550048 210.499405 
L 69.159995 210.05858 
L 69.769942 209.292161 
L 70.379889 209.969461 
L 70.989836 208.347713 
L 71.599784 211.560121 
L 72.209731 211.745819 
L 72.819678 210.764895 
L 73.429625 211.199088 
L 74.039572 210.787693 
L 74.649519 210.963028 
L 75.259467 210.993909 
L 75.869414 211.445718 
L 76.479361 213.640933 
L 77.089308 214.200099 
L 77.699255 213.196999 
L 78.309202 213.719067 
L 79.529097 212.446331 
L 80.139044 213.486737 
L 80.748991 213.562799 
L 81.358938 213.252128 
L 81.968885 214.52963 
L 82.578833 214.756364 
L 83.18878 209.236825 
L 83.798727 209.168432 
L 84.408674 208.714342 
L 85.018621 209.891949 
L 85.628569 209.83081 
L 86.848463 210.496296 
L 88.068357 210.097543 
L 88.678304 209.036619 
L 89.288252 204.061325 
L 89.898199 203.735317 
L 90.508146 202.478333 
L 91.118093 203.35501 
L 91.72804 202.555016 
L 92.337987 199.319396 
L 92.947935 207.04389 
L 93.557882 205.356029 
L 94.167829 205.70587 
L 94.777776 205.66898 
L 95.387723 205.31976 
L 95.99767 205.640172 
L 96.607618 205.706078 
L 97.217565 206.055505 
L 97.827512 207.788133 
L 98.437459 204.860282 
L 99.657353 204.558315 
L 100.267301 204.783391 
L 100.877248 203.23729 
L 101.487195 203.701328 
L 102.097142 204.677071 
L 102.707089 204.440389 
L 103.317036 204.745879 
L 103.926984 204.591683 
L 104.536931 203.528687 
L 105.146878 201.882069 
L 105.756825 202.31792 
L 106.366772 202.238128 
L 107.586667 201.043734 
L 108.196614 202.371391 
L 108.806561 202.232118 
L 109.416508 201.965591 
L 110.026455 202.334707 
L 110.636402 203.541329 
L 111.24635 203.295735 
L 111.856297 201.207256 
L 112.466244 201.438135 
L 113.076191 199.817838 
L 114.296085 199.846646 
L 114.906033 199.051419 
L 115.51598 183.91476 
L 116.125927 182.320369 
L 116.735874 183.326993 
L 117.345821 180.891159 
L 117.955768 180.37821 
L 118.565716 177.562275 
L 119.175663 175.918351 
L 119.78561 177.843723 
L 120.395557 175.058877 
L 121.005504 180.761626 
L 121.615451 179.977591 
L 122.225399 180.14816 
L 122.835346 178.326621 
L 123.445293 180.737585 
L 124.05524 177.41181 
L 124.665187 176.920208 
L 125.275134 175.76084 
L 125.885082 175.74571 
L 126.495029 175.077529 
L 127.104976 175.646436 
L 127.714923 173.67008 
L 128.32487 170.748447 
L 128.934817 172.488743 
L 129.544765 177.433364 
L 130.154712 175.418459 
L 130.764659 175.680426 
L 131.374606 175.243124 
L 131.984553 176.085396 
L 132.5945 175.895968 
L 133.814395 173.401274 
L 134.424342 167.868057 
L 135.034289 165.506626 
L 135.644236 166.613767 
L 136.254183 167.301637 
L 136.864131 165.824965 
L 138.084025 157.717469 
L 138.693972 153.549422 
L 139.303919 134.89072 
L 139.913866 140.479895 
L 140.523814 122.977868 
L 141.133761 119.463286 
L 141.743708 115.023738 
L 142.353655 121.675288 
L 142.963602 132.529911 
L 143.573549 134.54378 
L 144.183497 115.297311 
L 144.793444 119.166086 
L 145.403391 120.296232 
L 146.013338 127.064465 
L 146.623285 121.7928 
L 147.233232 119.244221 
L 147.84318 117.830968 
L 148.453127 103.883522 
L 149.063074 103.352127 
L 150.282968 105.571383 
L 150.892915 113.664993 
L 151.502863 107.833955 
L 152.11281 107.813437 
L 152.722757 103.995231 
L 153.332704 116.515539 
L 153.942651 126.030899 
L 154.552598 123.746151 
L 155.162546 123.389885 
L 155.772493 119.347225 
L 156.38244 120.734778 
L 156.992387 126.760219 
L 157.602334 118.889405 
L 158.212281 121.019957 
L 158.822229 115.725079 
L 159.432176 114.381671 
L 160.042123 104.936777 
L 160.65207 101.499086 
L 161.262017 99.022009 
L 161.871964 91.799479 
L 162.481912 97.007725 
L 163.091859 92.748279 
L 163.701806 87.57423 
L 164.311753 73.521914 
L 164.9217 64.00386 
L 165.531647 60.981088 
L 166.141595 56.773455 
L 166.751542 41.252343 
L 167.361489 17.083636 
L 167.971436 54.382802 
L 168.581383 28.65245 
L 169.19133 38.682831 
L 169.801278 62.571748 
L 170.411225 65.867264 
L 171.021172 61.169273 
L 171.631119 36.726786 
L 172.241066 53.809957 
L 172.851013 58.065465 
L 174.070908 47.250013 
L 174.680855 29.922284 
L 175.290802 24.249793 
L 175.900749 34.340485 
L 176.510696 49.82284 
L 177.120644 40.473697 
L 177.730591 49.071966 
L 178.340538 73.986573 
L 178.950485 59.757886 
L 179.560432 90.34374 
L 180.170379 84.611975 
L 180.780327 64.627067 
L 181.390274 66.757826 
L 182.000221 62.008644 
L 182.610168 65.687162 
L 183.220115 71.154266 
L 183.830062 81.088275 
L 184.44001 82.583184 
L 185.049957 80.448487 
L 185.659904 80.99812 
L 186.269851 88.763028 
L 186.879798 87.602209 
L 187.489745 88.196401 
L 188.099693 86.376727 
L 188.70964 76.105934 
L 189.319587 69.422674 
L 189.929534 66.886323 
L 190.539481 60.979223 
L 191.149428 57.545884 
L 191.759376 40.804886 
L 192.369323 47.485036 
L 192.97927 37.222947 
L 193.589217 36.485337 
L 194.199164 39.3821 
L 194.809111 51.287077 
L 195.419059 45.388267 
L 196.029006 49.130826 
L 196.638953 60.07664 
L 197.2489 77.50986 
L 197.858847 71.598822 
L 198.468794 70.411889 
L 199.078742 73.415386 
L 199.688689 71.279032 
L 200.298636 58.85095 
L 200.908583 62.098591 
L 201.51853 75.179517 
L 202.128477 75.54055 
L 202.738425 69.450861 
L 203.348372 74.881074 
L 203.958319 75.062212 
L 204.568266 70.394479 
L 205.178213 74.297659 
L 205.78816 83.7096 
L 206.398108 88.54417 
L 207.008055 86.607606 
L 207.618002 86.132792 
L 208.227949 82.63251 
L 208.837896 69.848163 
L 209.447843 64.984992 
L 210.057791 65.754519 
L 210.667738 65.886331 
L 211.277685 71.281726 
L 211.887632 67.763828 
L 213.107526 71.360689 
L 213.717474 75.767491 
L 214.327421 74.559418 
L 214.937368 69.153454 
L 215.547315 70.319454 
L 216.157262 70.372718 
L 217.377157 72.356121 
L 217.987104 73.916108 
L 218.597051 74.595273 
L 219.206998 72.143687 
L 219.816945 74.273618 
L 220.426892 78.286433 
L 221.03684 77.176391 
L 221.646787 84.423376 
L 222.256734 107.8381 
L 222.866681 110.353726 
L 223.476628 118.158634 
L 224.086575 115.293166 
L 224.696523 114.648612 
L 225.30647 118.135836 
L 225.916417 112.933808 
L 226.526364 112.619199 
L 227.136311 111.394132 
L 227.746258 114.417111 
L 228.356206 116.089429 
L 228.966153 116.250878 
L 229.5761 122.011451 
L 230.186047 114.917625 
L 230.795994 115.373994 
L 231.405941 107.127018 
L 232.015889 107.148157 
L 232.625836 113.721573 
L 233.235783 112.928212 
L 233.84573 113.430798 
L 234.455677 111.984593 
L 235.675572 119.259764 
L 236.285519 117.720503 
L 236.895466 120.262036 
L 237.505413 120.139964 
L 238.11536 114.523017 
L 238.725307 114.70001 
L 239.335255 118.757178 
L 239.945202 130.305267 
L 240.555149 131.086193 
L 241.165096 105.49242 
L 241.775043 93.202162 
L 242.38499 87.155788 
L 242.994938 94.052724 
L 243.604885 89.605301 
L 244.214832 95.174787 
L 244.824779 95.519655 
L 245.434726 93.3433 
L 246.044673 92.344552 
L 246.654621 94.313862 
L 247.264568 89.922397 
L 247.874515 92.157818 
L 248.484462 91.470777 
L 249.094409 94.353654 
L 249.704356 103.435443 
L 250.314304 102.53659 
L 250.924251 97.817252 
L 251.534198 104.43502 
L 252.144145 102.700112 
L 252.754092 103.510468 
L 253.364039 106.206818 
L 253.973987 109.826062 
L 255.193881 108.867728 
L 255.803828 115.664355 
L 256.413775 116.808179 
L 257.023722 117.616255 
L 257.63367 127.24809 
L 258.243617 134.102333 
L 258.853564 133.321407 
L 259.463511 141.956152 
L 260.073458 137.337539 
L 260.683405 136.645731 
L 261.293353 129.180509 
L 261.9033 131.104431 
L 262.513247 124.338271 
L 263.123194 128.478132 
L 263.733141 131.691162 
L 264.343088 133.620679 
L 264.953036 133.886376 
L 265.562983 136.04014 
L 266.17293 131.830435 
L 266.782877 128.696368 
L 267.392824 129.574288 
L 268.002771 129.210354 
L 268.612719 133.043896 
L 269.222666 135.4617 
L 270.44256 136.116616 
L 271.052507 134.816938 
L 271.662454 138.633072 
L 272.272402 137.733597 
L 273.492296 148.075893 
L 274.102243 134.145027 
L 274.71219 136.910392 
L 275.322137 136.095684 
L 275.932085 137.069147 
L 276.542032 129.375741 
L 277.151979 133.361821 
L 278.371873 136.042834 
L 278.98182 136.008016 
L 280.201715 133.797258 
L 280.811662 132.050329 
L 281.421609 135.485741 
L 282.031556 136.548737 
L 282.641503 136.395992 
L 283.251451 141.19077 
L 283.861398 133.273324 
L 284.471345 132.826903 
L 285.081292 132.750634 
L 286.301186 115.882384 
L 286.911134 118.427854 
L 287.521081 123.085431 
L 288.131028 115.484667 
L 288.740975 118.8664 
L 289.350922 115.706219 
L 289.960869 117.130663 
L 290.570817 101.852451 
L 291.180764 102.443741 
L 291.790711 104.347559 
L 292.400658 100.652047 
L 293.010605 100.434225 
L 293.620552 104.734499 
L 294.2305 106.328061 
L 294.840447 104.342793 
L 295.450394 105.655113 
L 296.060341 111.268122 
L 296.670288 110.43787 
L 297.280235 112.527179 
L 298.50013 100.746554 
L 299.110077 90.593065 
L 299.720024 92.78745 
L 300.329971 88.174847 
L 300.939918 91.669118 
L 301.549866 90.750576 
L 302.159813 92.067249 
L 302.76976 92.690042 
L 303.379707 95.226186 
L 303.989654 85.842639 
L 304.599601 82.925358 
L 305.209549 81.850134 
L 305.819496 79.786317 
L 306.429443 74.495377 
L 307.03939 80.870867 
L 307.649337 72.15405 
L 308.259284 70.518416 
L 308.869232 72.836946 
L 309.479179 70.223496 
L 310.089126 79.847456 
L 310.699073 79.153162 
L 311.30902 83.997473 
L 311.918967 74.117349 
L 312.528915 86.053621 
L 313.138862 86.009269 
L 313.748809 84.149803 
L 314.358756 84.708348 
L 314.968703 78.081254 
L 316.188598 92.179372 
L 316.798545 103.031716 
L 317.408492 102.633791 
L 318.018439 104.548179 
L 318.628386 108.297992 
L 319.238333 108.240998 
L 319.848281 100.393396 
L 320.458228 103.677928 
L 321.068175 103.583421 
L 321.678122 97.1899 
L 322.288069 95.355718 
L 322.898016 100.687487 
L 323.507964 118.495626 
L 324.117911 120.722343 
L 324.727858 121.685651 
L 325.337805 120.624727 
L 325.947752 185.006357 
L 326.557699 168.865147 
L 327.167647 178.041649 
L 327.777594 174.26593 
L 328.387541 180.941314 
L 328.997488 174.07588 
L 329.607435 172.985319 
L 330.217382 156.716649 
L 330.82733 156.069193 
L 331.437277 156.827529 
L 332.047224 164.438449 
L 332.657171 150.354837 
L 333.267118 144.835091 
L 333.877065 146.286478 
L 334.487013 144.933329 
L 335.09696 153.112741 
L 335.706907 155.353966 
L 336.316854 163.137112 
L 336.926801 152.362489 
L 337.536748 151.886016 
L 338.146696 147.231341 
L 338.756643 143.993233 
L 339.36659 145.390942 
L 339.976537 142.69625 
L 340.586484 144.649601 
L 341.196431 132.924104 
L 341.806379 135.77693 
L 342.416326 132.471673 
L 343.026273 133.95021 
L 343.63622 142.664125 
L 344.856115 141.790972 
L 345.466062 142.987024 
L 346.076009 142.690861 
L 346.685956 147.833823 
L 347.295903 137.710178 
L 347.90585 139.313895 
L 348.515798 134.661706 
L 349.125745 137.341891 
L 349.735692 143.348057 
L 350.345639 143.093552 
L 350.955586 137.322202 
L 351.565533 130.138636 
L 352.175481 129.527657 
L 352.785428 128.648079 
L 353.395375 125.544478 
L 354.005322 123.650401 
L 354.615269 124.17537 
L 355.225216 103.195237 
L 355.835164 106.280393 
L 356.445111 102.220531 
L 357.055058 99.129158 
L 357.665005 100.577229 
L 358.274952 100.950697 
L 359.494847 95.046913 
L 360.104794 77.809961 
L 360.714741 81.554592 
L 361.324688 87.656302 
L 361.934635 103.675441 
L 362.544582 106.519147 
L 363.15453 102.430477 
L 364.374424 82.207229 
L 364.984371 92.294605 
L 365.594318 90.592857 
L 365.594318 90.592857 
" style="fill:none;stroke:#e24a33;stroke-linecap:square;stroke-width:1.5;"/>
   </g>
   <g id="line2d_24">
    <path clip-path="url(#p03771296ca)" d="M 61.230682 205.883693 
L 61.840629 205.184217 
L 62.450576 178.694711 
L 63.67047 176.857807 
L 64.280418 177.084267 
L 64.890365 177.070458 
L 66.110259 180.0148 
L 66.720206 180.178021 
L 67.330153 180.594068 
L 68.550048 179.980767 
L 69.159995 180.354762 
L 69.769942 180.170431 
L 70.379889 180.222016 
L 70.989836 180.110046 
L 71.599784 180.133261 
L 72.209731 180.594073 
L 72.819678 180.559383 
L 74.039572 180.195148 
L 74.649519 180.305195 
L 75.259467 180.64999 
L 75.869414 180.539482 
L 77.089308 181.062637 
L 78.309202 180.578109 
L 78.91915 180.743668 
L 79.529097 181.116904 
L 80.139044 181.023023 
L 81.358938 180.151608 
L 81.968885 180.360232 
L 82.578833 180.818777 
L 83.18878 180.155044 
L 84.408674 179.598853 
L 85.018621 178.99891 
L 85.628569 178.751907 
L 86.238516 178.934771 
L 87.45841 180.118107 
L 88.068357 180.463286 
L 88.678304 180.096845 
L 89.288252 178.642397 
L 89.898199 177.591695 
L 91.118093 177.408225 
L 91.72804 177.448653 
L 92.337987 176.745549 
L 92.947935 177.476765 
L 93.557882 178.45417 
L 94.167829 178.236079 
L 94.777776 178.348601 
L 95.99767 178.302465 
L 97.827512 178.525691 
L 98.437459 178.394448 
L 99.047406 178.070222 
L 99.657353 178.045818 
L 100.267301 178.197963 
L 100.877248 178.129286 
L 101.487195 177.826853 
L 104.536931 177.932179 
L 105.146878 177.594772 
L 105.756825 177.074142 
L 106.366772 176.914862 
L 106.976719 176.909802 
L 107.586667 176.663691 
L 108.196614 176.688995 
L 108.806561 177.145784 
L 109.416508 177.398393 
L 110.026455 177.216314 
L 111.24635 177.58533 
L 111.856297 177.047208 
L 112.466244 176.6687 
L 113.686138 176.332168 
L 114.296085 176.085565 
L 114.906033 175.147755 
L 116.125927 168.202698 
L 116.735874 168.128227 
L 117.345821 167.908776 
L 117.955768 167.211202 
L 118.565716 166.059111 
L 119.175663 164.449998 
L 119.78561 164.507503 
L 120.395557 164.282673 
L 121.005504 165.12123 
L 121.615451 166.743397 
L 122.225399 166.743271 
L 122.835346 166.131341 
L 123.445293 166.039206 
L 124.05524 165.76401 
L 124.665187 164.715975 
L 125.275134 164.101105 
L 125.885082 164.015391 
L 126.495029 164.233056 
L 127.104976 164.001471 
L 127.714923 163.108425 
L 128.32487 161.57779 
L 128.934817 161.431494 
L 129.544765 163.534374 
L 130.154712 164.694632 
L 131.374606 164.217881 
L 131.984553 163.997813 
L 132.5945 164.178222 
L 133.204448 164.081134 
L 133.814395 163.331438 
L 135.034289 159.158794 
L 135.644236 158.69143 
L 136.254183 158.977788 
L 136.864131 158.692533 
L 137.474078 157.166219 
L 138.693972 151.847014 
L 139.303919 144.354091 
L 140.523814 135.75163 
L 141.133761 128.729856 
L 141.743708 126.231182 
L 142.353655 127.148 
L 142.963602 133.030221 
L 143.573549 137.398029 
L 144.793444 126.536151 
L 145.403391 128.139607 
L 146.013338 130.69399 
L 146.623285 131.105686 
L 147.233232 128.661871 
L 147.84318 127.508869 
L 149.063074 118.095211 
L 149.673021 118.208623 
L 150.282968 118.885992 
L 150.892915 121.592869 
L 151.502863 122.253697 
L 152.11281 120.634904 
L 152.722757 119.386357 
L 153.332704 122.005956 
L 153.942651 128.825518 
L 154.552598 131.06256 
L 155.162546 130.337046 
L 155.772493 129.158295 
L 156.38244 128.43817 
L 156.992387 130.736811 
L 157.602334 129.823268 
L 158.212281 128.006214 
L 158.822229 127.192203 
L 159.432176 125.090845 
L 160.042123 121.798709 
L 160.65207 117.891895 
L 161.262017 115.891781 
L 161.871964 112.962179 
L 162.481912 112.57776 
L 163.091859 112.748946 
L 163.701806 110.201829 
L 164.9217 100.182413 
L 165.531647 97.536903 
L 166.141595 96.017344 
L 166.751542 92.432924 
L 167.361489 86.278568 
L 167.971436 88.645685 
L 168.581383 90.121345 
L 169.19133 87.436094 
L 170.411225 98.181793 
L 171.021172 97.917587 
L 171.631119 92.616537 
L 172.241066 91.250069 
L 172.851013 94.998347 
L 173.460961 94.77371 
L 174.070908 92.663826 
L 175.290802 85.461572 
L 175.900749 86.105035 
L 176.510696 90.051427 
L 177.120644 91.023347 
L 177.730591 90.957103 
L 178.340538 97.434845 
L 178.950485 99.320941 
L 179.560432 103.410173 
L 180.170379 108.678607 
L 180.780327 102.64249 
L 181.390274 98.912073 
L 182.610168 97.889353 
L 183.220115 99.832949 
L 183.830062 103.563234 
L 184.44001 106.153997 
L 185.049957 106.059357 
L 185.659904 105.84575 
L 186.269851 108.048603 
L 186.879798 109.43951 
L 187.489745 109.062803 
L 188.099693 108.875851 
L 188.70964 106.009194 
L 189.319587 102.066293 
L 191.149428 96.255593 
L 191.759376 92.510735 
L 192.369323 90.770475 
L 192.97927 90.197698 
L 193.589217 88.375043 
L 194.199164 88.702831 
L 194.809111 91.244989 
L 195.419059 92.246023 
L 196.029006 91.818616 
L 196.638953 94.511285 
L 197.2489 100.354773 
L 197.858847 102.802756 
L 198.468794 101.174167 
L 199.078742 101.595462 
L 199.688689 101.856511 
L 200.298636 98.661215 
L 200.908583 99.684968 
L 201.51853 103.068359 
L 202.128477 103.088295 
L 202.738425 102.017263 
L 203.348372 101.890766 
L 203.958319 103.087627 
L 204.568266 102.024083 
L 205.178213 101.876517 
L 206.398108 108.568029 
L 207.008055 109.314146 
L 207.618002 108.684021 
L 208.227949 107.646253 
L 209.447843 99.643396 
L 210.057791 98.746858 
L 210.667738 98.938759 
L 211.277685 100.215242 
L 211.887632 100.652768 
L 212.497579 100.222791 
L 213.107526 100.960145 
L 213.717474 102.372526 
L 214.327421 103.136869 
L 214.937368 101.678251 
L 215.547315 100.74929 
L 217.377157 101.619749 
L 218.597051 102.756823 
L 219.206998 102.34667 
L 219.816945 102.282825 
L 220.426892 103.617293 
L 221.03684 104.200514 
L 221.646787 105.769821 
L 222.866681 121.347607 
L 223.476628 124.732091 
L 224.086575 126.357138 
L 224.696523 125.315893 
L 225.30647 126.129221 
L 225.916417 125.448684 
L 226.526364 123.771323 
L 227.136311 123.365947 
L 227.746258 123.968117 
L 228.356206 125.515864 
L 228.966153 126.138501 
L 229.5761 128.015519 
L 230.186047 127.490679 
L 231.405941 122.899453 
L 232.015889 120.393463 
L 233.235783 124.363333 
L 233.84573 124.195016 
L 234.455677 123.822656 
L 235.065624 124.578438 
L 235.675572 126.823349 
L 236.285519 127.382909 
L 236.895466 127.75784 
L 237.505413 128.597373 
L 238.725307 124.915885 
L 239.335255 126.1718 
L 239.945202 131.30636 
L 240.555149 135.320266 
L 241.165096 127.346559 
L 241.775043 115.818645 
L 242.38499 110.564591 
L 242.994938 110.689307 
L 243.604885 111.296126 
L 244.214832 111.636797 
L 244.824779 113.340535 
L 245.434726 112.924371 
L 246.044673 112.122423 
L 246.654621 112.377349 
L 247.874515 111.012126 
L 248.484462 111.389248 
L 249.094409 112.005793 
L 249.704356 115.448101 
L 250.314304 117.875324 
L 250.924251 116.286506 
L 251.534198 116.803832 
L 252.144145 118.100478 
L 252.754092 117.794604 
L 253.364039 118.846692 
L 253.973987 120.859841 
L 254.583934 121.925919 
L 255.193881 121.498649 
L 255.803828 123.429377 
L 256.413775 126.013714 
L 257.023722 126.483032 
L 257.63367 129.708737 
L 258.243617 135.272405 
L 259.463511 140.048676 
L 260.073458 141.27158 
L 260.683405 139.583183 
L 261.293353 136.948136 
L 262.513247 133.494879 
L 263.123194 132.726077 
L 263.733141 135.137367 
L 264.343088 136.808236 
L 264.953036 137.142091 
L 265.562983 137.952525 
L 266.17293 137.262637 
L 266.782877 134.793073 
L 267.392824 134.460028 
L 268.002771 134.564944 
L 268.612719 135.620382 
L 269.222666 137.702112 
L 269.832613 138.727625 
L 270.44256 139.08718 
L 271.052507 138.768089 
L 272.882349 141.599474 
L 273.492296 144.956038 
L 274.102243 142.320115 
L 274.71219 138.657131 
L 275.322137 139.400375 
L 275.932085 139.528967 
L 276.542032 137.178795 
L 277.151979 135.964579 
L 277.761926 137.890936 
L 278.371873 138.800897 
L 278.98182 139.112327 
L 279.591768 138.757858 
L 280.201715 138.101351 
L 280.811662 137.028684 
L 281.421609 137.56289 
L 282.031556 139.22752 
L 282.641503 139.539243 
L 283.251451 140.944267 
L 283.861398 139.876534 
L 284.471345 137.207955 
L 285.081292 136.909029 
L 285.691239 133.991601 
L 286.301186 128.511431 
L 286.911134 126.520632 
L 287.521081 128.850483 
L 288.131028 128.028543 
L 288.740975 126.778827 
L 289.350922 126.813426 
L 289.960869 126.087239 
L 291.180764 117.247779 
L 291.790711 118.070296 
L 292.400658 117.61042 
L 293.010605 116.559966 
L 293.620552 117.678399 
L 294.2305 119.412355 
L 294.840447 119.304271 
L 295.450394 119.067823 
L 296.060341 121.226216 
L 296.670288 122.75298 
L 297.280235 123.177204 
L 297.890183 121.935108 
L 298.50013 118.282527 
L 299.110077 113.674942 
L 299.720024 111.39533 
L 300.329971 110.69718 
L 300.939918 110.50782 
L 301.549866 111.261841 
L 302.159813 111.251539 
L 302.76976 111.743874 
L 303.379707 112.731165 
L 303.989654 85.842639 
L 304.599601 82.925358 
L 304.599601 82.925358 
" style="fill:none;stroke:#348abd;stroke-linecap:square;stroke-width:1.5;"/>
   </g>
   <g id="line2d_25">
    <path clip-path="url(#p03771296ca)" d="M 305.209549 81.850134 
L 305.819496 79.786317 
L 306.429443 86.125234 
L 307.03939 86.413566 
L 307.649337 85.917567 
L 308.259284 83.572562 
L 308.869232 83.684952 
L 309.479179 83.508484 
L 310.089126 85.116125 
L 310.699073 87.471118 
L 311.30902 88.595562 
L 311.918967 87.509755 
L 312.528915 88.097226 
L 313.138862 90.626673 
L 313.748809 90.124967 
L 314.358756 89.802057 
L 314.968703 88.140427 
L 315.57865 88.161587 
L 316.188598 92.083925 
L 316.798545 97.993039 
L 317.408492 101.553354 
L 318.018439 102.375056 
L 318.628386 105.00226 
L 319.238333 106.303749 
L 319.848281 102.899369 
L 320.458228 101.039362 
L 321.068175 102.193224 
L 321.678122 99.844374 
L 322.288069 97.045802 
L 322.898016 98.497235 
L 323.507964 107.520869 
L 324.117911 115.653299 
L 324.727858 117.408167 
L 325.337805 119.304463 
L 325.947752 145.524089 
L 326.557699 167.895666 
L 327.167647 170.321887 
L 327.777594 170.948936 
L 328.387541 169.715011 
L 328.997488 171.126147 
L 329.607435 168.815362 
L 330.217382 160.326455 
L 330.82733 154.780259 
L 331.437277 156.571128 
L 332.047224 159.463722 
L 332.657171 154.275406 
L 333.267118 144.603932 
L 333.877065 143.766898 
L 334.487013 143.377759 
L 335.09696 147.80661 
L 335.706907 154.847105 
L 336.316854 158.817881 
L 336.926801 155.702303 
L 337.536748 150.003588 
L 338.146696 147.336654 
L 338.756643 143.163074 
L 339.36659 142.627629 
L 339.976537 143.282507 
L 340.586484 142.224519 
L 341.196431 135.155309 
L 341.806379 131.159624 
L 342.416326 130.987199 
L 343.026273 129.286674 
L 343.63622 136.263845 
L 344.246167 142.589574 
L 344.856115 140.901891 
L 345.466062 140.310498 
L 346.076009 141.093073 
L 346.685956 142.806014 
L 347.295903 139.813007 
L 347.90585 136.607547 
L 348.515798 136.02002 
L 349.125745 134.221116 
L 349.735692 138.320387 
L 350.345639 141.436627 
L 350.955586 137.732947 
L 351.565533 130.034517 
L 352.175481 126.58339 
L 352.785428 127.198204 
L 353.395375 124.234615 
L 354.005322 120.774152 
L 354.615269 120.310754 
L 355.225216 112.842771 
L 355.835164 104.693679 
L 356.445111 102.9552 
L 357.055058 100.375386 
L 357.665005 99.477291 
L 358.274952 100.059064 
L 358.884899 99.121531 
L 359.494847 97.30254 
L 360.104794 91.763362 
L 360.714741 87.764084 
L 361.324688 90.010847 
L 361.934635 96.917089 
L 362.544582 103.364634 
L 363.15453 102.865003 
L 363.764477 97.849521 
L 364.374424 91.497537 
L 364.984371 92.294605 
L 365.594318 90.592857 
" style="fill:none;stroke:#988ed5;stroke-linecap:square;stroke-width:1.5;"/>
   </g>
   <g id="patch_3">
    <path d="M 46.0125 224.64 
L 46.0125 7.2 
" style="fill:none;stroke:#ffffff;stroke-linecap:square;stroke-linejoin:miter;"/>
   </g>
   <g id="patch_4">
    <path d="M 380.8125 224.64 
L 380.8125 7.2 
" style="fill:none;stroke:#ffffff;stroke-linecap:square;stroke-linejoin:miter;"/>
   </g>
   <g id="patch_5">
    <path d="M 46.0125 224.64 
L 380.8125 224.64 
" style="fill:none;stroke:#ffffff;stroke-linecap:square;stroke-linejoin:miter;"/>
   </g>
   <g id="patch_6">
    <path d="M 46.0125 7.2 
L 380.8125 7.2 
" style="fill:none;stroke:#ffffff;stroke-linecap:square;stroke-linejoin:miter;"/>
   </g>
  </g>
 </g>
 <defs>
  <clipPath id="p03771296ca">
   <rect height="217.44" width="334.8" x="46.0125" y="7.2"/>
  </clipPath>
 </defs>
</svg>
